<?xml version="1.0" encoding="UTF-8" standalone="no"?>
<!DOCTYPE svg PUBLIC "-//W3C//DTD SVG 1.1//EN"
 "http://www.w3.org/Graphics/SVG/1.1/DTD/svg11.dtd">
<!-- Generated by graphviz version 2.42.3 (0)
 -->
<!-- Title: dep Pages: 1 -->
<svg width="1317pt" height="332pt"
 viewBox="0.00 0.00 1316.59 332.00" xmlns="http://www.w3.org/2000/svg" xmlns:xlink="http://www.w3.org/1999/xlink">
<g id="graph0" class="graph" transform="scale(1 1) rotate(0) translate(4 328)">
<title>dep</title>
<polygon fill="white" stroke="transparent" points="-4,4 -4,-328 1312.59,-328 1312.59,4 -4,4"/>
<!-- Number -->
<g id="node1" class="node">
<title>Number</title>
<ellipse fill="none" stroke="black" cx="480.15" cy="-306" rx="43.59" ry="18"/>
<text text-anchor="middle" x="480.15" y="-302.3" font-family="Times,serif" font-size="14.00">Number</text>
</g>
<!-- Complex -->
<g id="node2" class="node">
<title>Complex</title>
<ellipse fill="none" stroke="black" cx="433.15" cy="-234" rx="47.39" ry="18"/>
<text text-anchor="middle" x="433.15" y="-230.3" font-family="Times,serif" font-size="14.00">Complex</text>
</g>
<!-- Number&#45;&gt;Complex -->
<g id="edge1" class="edge">
<title>Number&#45;&gt;Complex</title>
<path fill="none" stroke="black" d="M469.01,-288.41C463.41,-280.08 456.51,-269.8 450.26,-260.49"/>
<polygon fill="black" stroke="black" points="453.01,-258.31 444.53,-251.96 447.2,-262.21 453.01,-258.31"/>
</g>
<!-- Real -->
<g id="node3" class="node">
<title>Real</title>
<ellipse fill="none" stroke="black" cx="528.15" cy="-234" rx="29.5" ry="18"/>
<text text-anchor="middle" x="528.15" y="-230.3" font-family="Times,serif" font-size="14.00">Real</text>
</g>
<!-- Number&#45;&gt;Real -->
<g id="edge2" class="edge">
<title>Number&#45;&gt;Real</title>
<path fill="none" stroke="black" d="M491.52,-288.41C497.46,-279.74 504.85,-268.97 511.43,-259.38"/>
<polygon fill="black" stroke="black" points="514.41,-261.21 517.18,-250.99 508.64,-257.26 514.41,-261.21"/>
</g>
<!-- AbstractFloat -->
<g id="node4" class="node">
<title>AbstractFloat</title>
<ellipse fill="none" stroke="black" cx="251.15" cy="-162" rx="65.79" ry="18"/>
<text text-anchor="middle" x="251.15" y="-158.3" font-family="Times,serif" font-size="14.00">AbstractFloat</text>
</g>
<!-- Real&#45;&gt;AbstractFloat -->
<g id="edge3" class="edge">
<title>Real&#45;&gt;AbstractFloat</title>
<path fill="none" stroke="black" d="M505.75,-222.36C500.38,-220.06 494.62,-217.79 489.15,-216 431.66,-197.26 364.23,-182.93 315.84,-173.93"/>
<polygon fill="black" stroke="black" points="316.29,-170.45 305.82,-172.09 315.02,-177.34 316.29,-170.45"/>
</g>
<!-- AbstractIrrational -->
<g id="node9" class="node">
<title>AbstractIrrational</title>
<ellipse fill="none" stroke="black" cx="458.15" cy="-162" rx="82.59" ry="18"/>
<text text-anchor="middle" x="458.15" y="-158.3" font-family="Times,serif" font-size="14.00">AbstractIrrational</text>
</g>
<!-- Real&#45;&gt;AbstractIrrational -->
<g id="edge8" class="edge">
<title>Real&#45;&gt;AbstractIrrational</title>
<path fill="none" stroke="black" d="M513.3,-218.15C504.26,-209.11 492.49,-197.35 482.15,-187.01"/>
<polygon fill="black" stroke="black" points="484.48,-184.39 474.93,-179.79 479.53,-189.33 484.48,-184.39"/>
</g>
<!-- Integer -->
<g id="node11" class="node">
<title>Integer</title>
<ellipse fill="none" stroke="black" cx="598.15" cy="-162" rx="38.99" ry="18"/>
<text text-anchor="middle" x="598.15" y="-158.3" font-family="Times,serif" font-size="14.00">Integer</text>
</g>
<!-- Real&#45;&gt;Integer -->
<g id="edge10" class="edge">
<title>Real&#45;&gt;Integer</title>
<path fill="none" stroke="black" d="M542.99,-218.15C552.29,-208.85 564.47,-196.67 575.02,-186.12"/>
<polygon fill="black" stroke="black" points="577.75,-188.34 582.35,-178.8 572.8,-183.39 577.75,-188.34"/>
</g>
<!-- Rational -->
<g id="node26" class="node">
<title>Rational</title>
<ellipse fill="none" stroke="black" cx="700.15" cy="-162" rx="44.69" ry="18"/>
<text text-anchor="middle" x="700.15" y="-158.3" font-family="Times,serif" font-size="14.00">Rational</text>
</g>
<!-- Real&#45;&gt;Rational -->
<g id="edge25" class="edge">
<title>Real&#45;&gt;Rational</title>
<path fill="none" stroke="black" d="M552.06,-223.27C580.04,-211.88 626.78,-192.86 660.27,-179.23"/>
<polygon fill="black" stroke="black" points="661.83,-182.37 669.77,-175.36 659.19,-175.89 661.83,-182.37"/>
</g>
<!-- BigFloat -->
<g id="node5" class="node">
<title>BigFloat</title>
<ellipse fill="none" stroke="black" cx="46.15" cy="-90" rx="46.29" ry="18"/>
<text text-anchor="middle" x="46.15" y="-86.3" font-family="Times,serif" font-size="14.00">BigFloat</text>
</g>
<!-- AbstractFloat&#45;&gt;BigFloat -->
<g id="edge4" class="edge">
<title>AbstractFloat&#45;&gt;BigFloat</title>
<path fill="none" stroke="black" d="M211.62,-147.5C176.63,-135.56 125.66,-118.15 89.55,-105.82"/>
<polygon fill="black" stroke="black" points="90.38,-102.4 79.78,-102.49 88.11,-109.03 90.38,-102.4"/>
</g>
<!-- Float16 -->
<g id="node6" class="node">
<title>Float16</title>
<ellipse fill="none" stroke="black" cx="151.15" cy="-90" rx="40.89" ry="18"/>
<text text-anchor="middle" x="151.15" y="-86.3" font-family="Times,serif" font-size="14.00">Float16</text>
</g>
<!-- AbstractFloat&#45;&gt;Float16 -->
<g id="edge5" class="edge">
<title>AbstractFloat&#45;&gt;Float16</title>
<path fill="none" stroke="black" d="M227.95,-144.76C213.87,-134.91 195.76,-122.23 180.66,-111.66"/>
<polygon fill="black" stroke="black" points="182.37,-108.58 172.17,-105.72 178.36,-114.32 182.37,-108.58"/>
</g>
<!-- Float32 -->
<g id="node7" class="node">
<title>Float32</title>
<ellipse fill="none" stroke="black" cx="251.15" cy="-90" rx="40.89" ry="18"/>
<text text-anchor="middle" x="251.15" y="-86.3" font-family="Times,serif" font-size="14.00">Float32</text>
</g>
<!-- AbstractFloat&#45;&gt;Float32 -->
<g id="edge6" class="edge">
<title>AbstractFloat&#45;&gt;Float32</title>
<path fill="none" stroke="black" d="M251.15,-143.7C251.15,-135.98 251.15,-126.71 251.15,-118.11"/>
<polygon fill="black" stroke="black" points="254.65,-118.1 251.15,-108.1 247.65,-118.1 254.65,-118.1"/>
</g>
<!-- Float64 -->
<g id="node8" class="node">
<title>Float64</title>
<ellipse fill="none" stroke="black" cx="351.15" cy="-90" rx="40.89" ry="18"/>
<text text-anchor="middle" x="351.15" y="-86.3" font-family="Times,serif" font-size="14.00">Float64</text>
</g>
<!-- AbstractFloat&#45;&gt;Float64 -->
<g id="edge7" class="edge">
<title>AbstractFloat&#45;&gt;Float64</title>
<path fill="none" stroke="black" d="M274.34,-144.76C288.42,-134.91 306.53,-122.23 321.63,-111.66"/>
<polygon fill="black" stroke="black" points="323.94,-114.32 330.12,-105.72 319.92,-108.58 323.94,-114.32"/>
</g>
<!-- Irrational -->
<g id="node10" class="node">
<title>Irrational</title>
<ellipse fill="none" stroke="black" cx="458.15" cy="-90" rx="48.19" ry="18"/>
<text text-anchor="middle" x="458.15" y="-86.3" font-family="Times,serif" font-size="14.00">Irrational</text>
</g>
<!-- AbstractIrrational&#45;&gt;Irrational -->
<g id="edge9" class="edge">
<title>AbstractIrrational&#45;&gt;Irrational</title>
<path fill="none" stroke="black" d="M458.15,-143.7C458.15,-135.98 458.15,-126.71 458.15,-118.11"/>
<polygon fill="black" stroke="black" points="461.65,-118.1 458.15,-108.1 454.65,-118.1 461.65,-118.1"/>
</g>
<!-- Bool -->
<g id="node12" class="node">
<title>Bool</title>
<ellipse fill="none" stroke="black" cx="555.15" cy="-90" rx="30.59" ry="18"/>
<text text-anchor="middle" x="555.15" y="-86.3" font-family="Times,serif" font-size="14.00">Bool</text>
</g>
<!-- Integer&#45;&gt;Bool -->
<g id="edge11" class="edge">
<title>Integer&#45;&gt;Bool</title>
<path fill="none" stroke="black" d="M587.96,-144.41C582.76,-135.95 576.34,-125.49 570.55,-116.08"/>
<polygon fill="black" stroke="black" points="573.48,-114.16 565.26,-107.47 567.52,-117.82 573.48,-114.16"/>
</g>
<!-- Signed -->
<g id="node13" class="node">
<title>Signed</title>
<ellipse fill="none" stroke="black" cx="642.15" cy="-90" rx="38.19" ry="18"/>
<text text-anchor="middle" x="642.15" y="-86.3" font-family="Times,serif" font-size="14.00">Signed</text>
</g>
<!-- Integer&#45;&gt;Signed -->
<g id="edge12" class="edge">
<title>Integer&#45;&gt;Signed</title>
<path fill="none" stroke="black" d="M608.57,-144.41C613.89,-135.95 620.46,-125.49 626.38,-116.08"/>
<polygon fill="black" stroke="black" points="629.43,-117.8 631.79,-107.47 623.51,-114.07 629.43,-117.8"/>
</g>
<!-- Unsigned -->
<g id="node20" class="node">
<title>Unsigned</title>
<ellipse fill="none" stroke="black" cx="1039.15" cy="-90" rx="48.99" ry="18"/>
<text text-anchor="middle" x="1039.15" y="-86.3" font-family="Times,serif" font-size="14.00">Unsigned</text>
</g>
<!-- Integer&#45;&gt;Unsigned -->
<g id="edge19" class="edge">
<title>Integer&#45;&gt;Unsigned</title>
<path fill="none" stroke="black" d="M626.79,-149.77C633.09,-147.61 639.79,-145.54 646.15,-144 763.51,-115.63 904.51,-101.25 981.68,-95.02"/>
<polygon fill="black" stroke="black" points="981.99,-98.5 991.68,-94.22 981.44,-91.53 981.99,-98.5"/>
</g>
<!-- BigInt -->
<g id="node14" class="node">
<title>BigInt</title>
<ellipse fill="none" stroke="black" cx="383.15" cy="-18" rx="36.29" ry="18"/>
<text text-anchor="middle" x="383.15" y="-14.3" font-family="Times,serif" font-size="14.00">BigInt</text>
</g>
<!-- Signed&#45;&gt;BigInt -->
<g id="edge13" class="edge">
<title>Signed&#45;&gt;BigInt</title>
<path fill="none" stroke="black" d="M613.51,-77.96C607.49,-75.83 601.15,-73.73 595.15,-72 522.6,-51.11 501.62,-57.14 429.15,-36 426.22,-35.15 423.21,-34.2 420.19,-33.2"/>
<polygon fill="black" stroke="black" points="421.26,-29.86 410.67,-29.89 418.96,-36.48 421.26,-29.86"/>
</g>
<!-- Int128 -->
<g id="node15" class="node">
<title>Int128</title>
<ellipse fill="none" stroke="black" cx="474.15" cy="-18" rx="36.29" ry="18"/>
<text text-anchor="middle" x="474.15" y="-14.3" font-family="Times,serif" font-size="14.00">Int128</text>
</g>
<!-- Signed&#45;&gt;Int128 -->
<g id="edge14" class="edge">
<title>Signed&#45;&gt;Int128</title>
<path fill="none" stroke="black" d="M614.4,-77.44C586.06,-65.63 541.91,-47.24 510.73,-34.24"/>
<polygon fill="black" stroke="black" points="511.67,-30.84 501.09,-30.23 508.98,-37.31 511.67,-30.84"/>
</g>
<!-- Int16 -->
<g id="node16" class="node">
<title>Int16</title>
<ellipse fill="none" stroke="black" cx="560.15" cy="-18" rx="31.7" ry="18"/>
<text text-anchor="middle" x="560.15" y="-14.3" font-family="Times,serif" font-size="14.00">Int16</text>
</g>
<!-- Signed&#45;&gt;Int16 -->
<g id="edge15" class="edge">
<title>Signed&#45;&gt;Int16</title>
<path fill="none" stroke="black" d="M624.35,-73.81C612.84,-63.98 597.68,-51.04 584.99,-40.21"/>
<polygon fill="black" stroke="black" points="586.94,-37.27 577.06,-33.44 582.4,-42.6 586.94,-37.27"/>
</g>
<!-- Int32 -->
<g id="node17" class="node">
<title>Int32</title>
<ellipse fill="none" stroke="black" cx="642.15" cy="-18" rx="31.7" ry="18"/>
<text text-anchor="middle" x="642.15" y="-14.3" font-family="Times,serif" font-size="14.00">Int32</text>
</g>
<!-- Signed&#45;&gt;Int32 -->
<g id="edge16" class="edge">
<title>Signed&#45;&gt;Int32</title>
<path fill="none" stroke="black" d="M642.15,-71.7C642.15,-63.98 642.15,-54.71 642.15,-46.11"/>
<polygon fill="black" stroke="black" points="645.65,-46.1 642.15,-36.1 638.65,-46.1 645.65,-46.1"/>
</g>
<!-- Int64 -->
<g id="node18" class="node">
<title>Int64</title>
<ellipse fill="none" stroke="black" cx="724.15" cy="-18" rx="31.7" ry="18"/>
<text text-anchor="middle" x="724.15" y="-14.3" font-family="Times,serif" font-size="14.00">Int64</text>
</g>
<!-- Signed&#45;&gt;Int64 -->
<g id="edge17" class="edge">
<title>Signed&#45;&gt;Int64</title>
<path fill="none" stroke="black" d="M659.94,-73.81C671.45,-63.98 686.61,-51.04 699.3,-40.21"/>
<polygon fill="black" stroke="black" points="701.9,-42.6 707.23,-33.44 697.35,-37.27 701.9,-42.6"/>
</g>
<!-- Int8 -->
<g id="node19" class="node">
<title>Int8</title>
<ellipse fill="none" stroke="black" cx="801.15" cy="-18" rx="27" ry="18"/>
<text text-anchor="middle" x="801.15" y="-14.3" font-family="Times,serif" font-size="14.00">Int8</text>
</g>
<!-- Signed&#45;&gt;Int8 -->
<g id="edge18" class="edge">
<title>Signed&#45;&gt;Int8</title>
<path fill="none" stroke="black" d="M670.11,-77.27C695.12,-66.71 732.72,-50.64 765.15,-36 766.94,-35.19 768.78,-34.35 770.64,-33.49"/>
<polygon fill="black" stroke="black" points="772.29,-36.58 779.88,-29.19 769.34,-30.24 772.29,-36.58"/>
</g>
<!-- UInt128 -->
<g id="node21" class="node">
<title>UInt128</title>
<ellipse fill="none" stroke="black" cx="890.15" cy="-18" rx="44.39" ry="18"/>
<text text-anchor="middle" x="890.15" y="-14.3" font-family="Times,serif" font-size="14.00">UInt128</text>
</g>
<!-- Unsigned&#45;&gt;UInt128 -->
<g id="edge20" class="edge">
<title>Unsigned&#45;&gt;UInt128</title>
<path fill="none" stroke="black" d="M1010.06,-75.34C986.48,-64.26 953.09,-48.57 927.52,-36.56"/>
<polygon fill="black" stroke="black" points="928.68,-33.24 918.15,-32.15 925.71,-39.57 928.68,-33.24"/>
</g>
<!-- UInt16 -->
<g id="node22" class="node">
<title>UInt16</title>
<ellipse fill="none" stroke="black" cx="991.15" cy="-18" rx="38.99" ry="18"/>
<text text-anchor="middle" x="991.15" y="-14.3" font-family="Times,serif" font-size="14.00">UInt16</text>
</g>
<!-- Unsigned&#45;&gt;UInt16 -->
<g id="edge21" class="edge">
<title>Unsigned&#45;&gt;UInt16</title>
<path fill="none" stroke="black" d="M1027.77,-72.41C1021.91,-63.87 1014.65,-53.28 1008.14,-43.79"/>
<polygon fill="black" stroke="black" points="1010.98,-41.74 1002.44,-35.47 1005.21,-45.7 1010.98,-41.74"/>
</g>
<!-- UInt32 -->
<g id="node23" class="node">
<title>UInt32</title>
<ellipse fill="none" stroke="black" cx="1087.15" cy="-18" rx="38.99" ry="18"/>
<text text-anchor="middle" x="1087.15" y="-14.3" font-family="Times,serif" font-size="14.00">UInt32</text>
</g>
<!-- Unsigned&#45;&gt;UInt32 -->
<g id="edge22" class="edge">
<title>Unsigned&#45;&gt;UInt32</title>
<path fill="none" stroke="black" d="M1050.52,-72.41C1056.38,-63.87 1063.64,-53.28 1070.15,-43.79"/>
<polygon fill="black" stroke="black" points="1073.08,-45.7 1075.85,-35.47 1067.31,-41.74 1073.08,-45.7"/>
</g>
<!-- UInt64 -->
<g id="node24" class="node">
<title>UInt64</title>
<ellipse fill="none" stroke="black" cx="1183.15" cy="-18" rx="38.99" ry="18"/>
<text text-anchor="middle" x="1183.15" y="-14.3" font-family="Times,serif" font-size="14.00">UInt64</text>
</g>
<!-- Unsigned&#45;&gt;UInt64 -->
<g id="edge23" class="edge">
<title>Unsigned&#45;&gt;UInt64</title>
<path fill="none" stroke="black" d="M1067.6,-75.17C1090.71,-63.94 1123.41,-48.04 1148.13,-36.02"/>
<polygon fill="black" stroke="black" points="1149.71,-39.14 1157.18,-31.62 1146.65,-32.85 1149.71,-39.14"/>
</g>
<!-- UInt8 -->
<g id="node25" class="node">
<title>UInt8</title>
<ellipse fill="none" stroke="black" cx="1274.15" cy="-18" rx="34.39" ry="18"/>
<text text-anchor="middle" x="1274.15" y="-14.3" font-family="Times,serif" font-size="14.00">UInt8</text>
</g>
<!-- Unsigned&#45;&gt;UInt8 -->
<g id="edge24" class="edge">
<title>Unsigned&#45;&gt;UInt8</title>
<path fill="none" stroke="black" d="M1078.86,-79.36C1117.95,-69.57 1179.17,-53.39 1231.15,-36 1233.54,-35.2 1236,-34.34 1238.47,-33.44"/>
<polygon fill="black" stroke="black" points="1239.8,-36.68 1247.93,-29.88 1237.34,-30.13 1239.8,-36.68"/>
</g>
</g>
</svg>
